<?xml version="1.0" encoding="utf-8"?>
<svg xmlns="http://www.w3.org/2000/svg" viewBox="0 0 512 512">
  <path d="M 341.8 392.8 331.4 382.7 322.3 377.3 319 377.1 315.5 379.1 314.5 382.4 319.5 388.8 314.2 394.1 298 404.5 281.5 410.8 264 413.6 247.3 412.8 231 408.8 212.3 399.7 208.7 400.2 205.4 402.7 204.6 407.8 207.9 412.3 216.3 418.4 236.1 427.3 257.9 430.9 272.6 430.1 284.3 427.8 298.2 422.5 316.7 410.1 329.4 395.1 338.3 397.6 340.8 396.1 ZM 306.8 317.7 307.6 321.8 312.7 323.6 321.8 318.8 330.7 316 348.4 315.2 363.6 318.5 379.4 326.6 383.2 326.1 385.2 323.6 385.2 319.8 383.2 315.2 374.8 306.1 362.9 299.7 351 297.2 337.3 297.7 326.1 301.3 315.7 307.9 ZM 149.6 277.4 139.7 282 132.9 289.6 129.3 298.2 129.6 310.9 135.7 322.1 143.5 328.1 152.9 331.4 162.8 330.9 172.2 327.1 180.6 318.5 184.6 307.9 183.9 296.7 178.5 286.8 172.2 281.5 159.8 276.9 ZM 310.6 231 311.7 235.8 316.7 237.4 335 228.2 347.4 225.9 356.8 225.9 376.1 230.3 393.6 240.7 398.1 239.9 400.4 235.8 396.9 228.5 385.5 218.3 373.5 212.3 358.1 209 345.1 209.5 330.7 213.8 318.8 221.4 ZM 73.8 73.5 70.5 79.4 71 84.2 73.8 87.7 123.2 112.3 129.3 116.7 130.3 118.4 131.4 158.5 105.2 160 92.3 163.3 77.1 171.2 65.4 181.8 56.3 195.5 51.5 210.7 50.7 262.7 33.2 264.7 26.9 269.3 23.6 276.2 23.8 356 26.6 361.6 34.7 367.5 51 369 51 454.2 56.3 472.9 66.7 488.9 75.6 497.3 88.2 505.2 100.7 509.7 115.1 512 395.6 512 405.5 511 419.7 506.9 436.2 497.3 445.1 488.9 452.4 479 459.8 459.5 460.8 452.4 460.8 368.7 474 368.2 480.6 365.7 486.1 360.4 488.4 352.5 487.9 274.6 485.1 269.6 478.5 264.7 461 263 460.8 217.3 456.5 199.1 450.4 188.2 441 177.5 421.7 164.8 421.7 97.9 438.5 88 440.5 83.9 440.5 79.9 438.5 75.6 435.4 73.3 258.2 0 248.8 1.3 ZM 437.7 321.8 437.7 453.9 434.7 465.3 429.3 474.2 421.2 481.8 412.3 486.9 398.4 490.2 114.9 490.2 104.2 488.7 93.1 483.9 84.4 476.8 77.6 467.4 74 454.4 75.1 328.4 76.6 329.4 84.2 345.6 91.3 355 99.2 363.1 109.6 371 131.4 381.1 148.6 384.2 161 384.2 178 381.1 190.7 376.3 204.1 368.5 215.3 358.6 224.2 347.2 231.5 333 235.6 319.3 237.1 302.3 238.1 301.3 273.9 301.5 274.6 303.5 273.4 319.8 275.7 329.2 278.4 335 283 340.6 285.5 341.8 289.3 341.1 291.4 338.3 291.4 312.9 293.7 304.1 297.7 295.2 304.6 285.8 312.7 278.4 321.3 272.9 333.7 268 343.6 266.5 361.6 267.5 375.1 272.1 386.7 279.7 396.4 289.6 404.5 304.3 408 319 408.3 329.2 410.6 332.5 415.4 333.5 418.7 332 422.2 327.9 425.5 321 436.4 320.3 ZM 150.9 243.2 159.8 243.2 174.7 246.5 185.4 251.3 196 258.9 202.1 265.3 210.2 277.2 214.3 287.3 216.3 298.7 216.3 309.6 214 321.8 210.2 331.2 202.4 342.9 197 348.4 183.9 357.8 171.2 362.9 159.5 364.9 146.1 364.4 136.9 362.4 125.8 357.8 116.9 352 103 336.8 96.6 323.3 93.6 308.6 93.8 297.5 96.9 283.8 102.2 272.9 108.5 264.2 119.4 254.4 130.3 248.3 140.7 244.7 ZM 74.3 211.5 78.6 200.3 87.5 190.2 98.9 183.3 109.3 180.6 399.7 180.3 406.8 181.6 417.4 185.9 426.8 193 433.4 201.6 437.2 211.7 437.7 297.5 436.7 298.5 423.5 300 412.8 279.7 396.9 263.7 376.6 252.6 355 247.8 337.8 248.3 318 253.6 302 262.7 293.7 269.6 283.5 280.7 234.3 280.7 232.8 279.7 229.5 270.8 223.2 259.9 214 248.8 205.4 241.2 195.8 234.6 185.4 229.5 172.7 225.4 160.3 223.4 142.8 223.9 132.6 226.2 120.7 230.5 108 237.6 98.9 245 90.3 254.1 82.7 265.5 76.6 280 75.1 280.7 74 271.3 ZM 400.2 108 400.7 158.2 399.7 159.5 378.1 159.5 377.1 158.7 377.9 121.2 381.9 116.7 Z"></path>
</svg>